<?xml version="1.0" standalone="no"?>
<!DOCTYPE svg PUBLIC "-//W3C//DTD SVG 20010904//EN"
 "http://www.w3.org/TR/2001/REC-SVG-20010904/DTD/svg10.dtd">
<svg version="1.0" xmlns="http://www.w3.org/2000/svg"
 width="500.000000pt" height="500.000000pt" viewBox="0 0 500.000000 500.000000"
 preserveAspectRatio="xMidYMid meet">
<metadata>
Created by potrace 1.14, written by Peter Selinger 2001-2017
</metadata>
<g transform="translate(0.000000,500.000000) scale(0.100000,-0.100000)"
fill="#000000" stroke="none">
<path d="M0 2500 l0 -2500 2500 0 2500 0 0 1260 c-1 778 -5 1260 -11 1260 -5
0 -9 5 -9 11 0 5 4 8 9 5 5 -4 10 31 10 79 1 82 0 85 -22 85 -13 0 -28 5 -33
10 -6 6 -30 13 -55 16 -24 3 -48 9 -54 13 -5 5 -35 16 -65 26 -30 10 -66 23
-80 31 -65 33 -127 44 -182 32 -85 -18 -198 -10 -198 13 0 15 59 69 75 69 6 0
34 -12 61 -26 44 -23 54 -25 93 -16 35 8 58 6 110 -8 36 -10 118 -21 181 -25
63 -3 127 -9 142 -12 l28 -5 0 1091 0 1091 -2500 0 -2500 0 0 -2500z m859
1411 c35 -26 22 -48 -24 -43 -40 5 -54 24 -35 47 16 20 30 19 59 -4z m-199
-61 c27 -27 25 -56 -5 -86 -39 -39 -95 -13 -95 45 0 55 61 80 100 41z m-140
-30 c0 -5 -4 -10 -10 -10 -5 0 -10 5 -10 10 0 6 5 10 10 10 6 0 10 -4 10 -10z
m1860 -31 c0 -7 10 -9 25 -5 14 4 25 2 25 -3 0 -5 -10 -11 -22 -13 -12 -2 -24
-9 -26 -17 -3 -10 0 -12 11 -8 9 3 28 0 42 -7 22 -12 31 -12 55 1 25 12 33 12
63 0 22 -10 39 -11 50 -5 11 6 17 5 17 -2 0 -5 3 -9 8 -9 4 1 9 1 12 0 3 -1
23 -4 45 -7 96 -10 165 -2 310 37 66 18 75 18 130 3 66 -17 127 -49 195 -103
56 -45 72 -64 58 -72 -5 -3 -9 -10 -7 -15 10 -35 -235 -61 -267 -29 -9 8 -12
15 -8 15 5 0 3 5 -2 10 -11 11 -110 22 -174 20 -27 -1 -32 2 -23 11 6 6 22 13
35 14 51 5 53 6 29 16 -18 7 -31 4 -60 -13 -26 -17 -52 -23 -96 -23 -33 -1
-67 -5 -74 -9 -9 -6 -12 -5 -8 1 12 19 -78 -18 -104 -43 l-26 -25 -7 23 c-6
20 -8 21 -19 7 -7 -9 -22 -19 -35 -23 -12 -4 -22 -15 -23 -24 0 -11 -3 -12 -6
-4 -7 19 -30 14 -36 -8 -3 -13 -10 -18 -21 -14 -11 4 -15 2 -11 -7 8 -22 -122
-61 -163 -49 -34 9 -44 -4 -20 -28 18 -18 1 -27 -50 -26 -81 2 -132 15 -144
38 -22 44 -39 55 -64 46 -31 -12 -88 14 -103 46 -9 20 -18 24 -53 24 -32 0
-39 3 -28 10 10 6 11 10 3 10 -7 0 -13 7 -13 15 0 8 -4 15 -10 15 -5 0 -10 4
-10 10 0 5 7 7 16 3 10 -3 17 1 20 13 6 23 73 57 96 49 8 -3 33 1 54 11 22 9
42 17 45 16 4 -1 15 8 25 20 11 12 13 18 7 14 -8 -4 -13 -1 -13 9 0 8 12 21
28 28 15 6 29 14 32 18 9 12 100 21 100 10 0 -12 56 -7 73 7 7 4 28 9 47 11
19 1 39 6 44 11 13 13 26 13 26 -1z m1327 -101 c-3 -8 -6 -5 -6 6 -1 11 2 17
5 13 3 -3 4 -12 1 -19z m63 -58 c0 -11 -7 -20 -15 -20 -8 0 -15 9 -15 20 0 11
7 20 15 20 8 0 15 -9 15 -20z m-3295 -20 c0 -8 -8 -16 -17 -18 -13 -2 -18 3
-18 18 0 15 5 20 18 18 9 -2 17 -10 17 -18z m2990 -102 c-8 -39 -23 -58 -19
-26 1 13 3 31 3 41 1 9 6 17 12 17 7 0 8 -12 4 -32z m465 17 c0 -8 -7 -15 -15
-15 -16 0 -20 12 -8 23 11 12 23 8 23 -8z m-408 -53 c-4 -28 7 -28 52 3 l37
25 30 -21 c16 -11 33 -29 39 -39 15 -29 21 -104 12 -147 -7 -31 -6 -40 4 -40
8 0 14 4 14 9 0 4 11 8 25 8 24 0 29 -8 26 -42 -1 -9 3 -19 9 -23 6 -4 10 4
10 20 0 20 4 26 18 23 9 -2 17 -12 17 -22 0 -10 10 -22 22 -27 12 -4 30 -21
39 -36 10 -15 19 -30 20 -32 2 -1 8 1 15 5 8 4 32 9 55 10 51 2 101 35 110 72
9 38 23 52 50 52 33 0 64 -34 64 -69 0 -21 -9 -36 -35 -55 -41 -31 -47 -66
-12 -66 58 -1 73 -51 32 -110 -31 -45 -25 -70 17 -70 20 0 39 -9 55 -26 13
-14 23 -27 21 -29 -18 -15 -54 -25 -88 -25 -22 0 -55 -7 -72 -16 -29 -15 -34
-15 -65 0 -18 9 -51 16 -71 16 -32 0 -45 -8 -86 -49 -26 -27 -44 -51 -39 -53
13 -7 135 -3 166 6 23 7 27 5 27 -14 0 -11 -3 -19 -8 -16 -4 2 -32 -4 -62 -15
-30 -10 -63 -19 -74 -19 -18 0 -17 -1 4 -20 15 -13 38 -20 69 -21 33 0 41 -3
26 -8 -11 -5 -31 -7 -45 -6 -14 2 -31 -2 -39 -9 -11 -8 -13 -8 -8 1 5 8 1 11
-12 10 -11 0 -18 -4 -16 -8 3 -3 -5 -15 -15 -27 -24 -25 -26 -44 -5 -36 8 4
15 1 15 -5 0 -7 15 -9 43 -5 38 4 40 4 23 -9 -15 -11 -28 -12 -53 -5 -18 5
-37 7 -42 3 -5 -3 -11 1 -14 7 -4 10 -7 11 -18 1 -7 -7 -18 -13 -23 -13 -6 0
-4 5 4 10 13 9 13 10 -1 10 -8 0 -20 -5 -27 -12 -7 -7 -12 -8 -12 -2 0 12 -45
12 -57 0 -5 -5 0 -6 11 -2 14 5 17 2 12 -9 -4 -12 6 -21 35 -34 25 -11 36 -21
27 -24 -9 -4 -7 -6 5 -6 10 -1 30 6 45 15 l27 16 -25 -22 c-24 -21 -24 -22 -3
-17 14 3 21 0 20 -7 -2 -10 11 -12 92 -15 39 -2 17 -12 -30 -14 -24 -2 -65 5
-92 15 -47 18 -48 18 -90 -3 -27 -14 -38 -17 -30 -7 11 12 8 15 -18 15 -20 0
-26 -3 -17 -9 9 -6 6 -7 -8 -3 -14 3 -29 -2 -45 -18 -13 -13 -37 -27 -54 -31
-25 -5 -21 -2 18 20 26 15 47 31 47 36 0 13 -12 9 -55 -15 -29 -16 -41 -30
-43 -50 -4 -32 2 -33 63 -7 25 11 43 15 39 9 -3 -6 -20 -17 -38 -25 -17 -7
-25 -13 -18 -14 7 0 32 9 54 20 44 21 64 26 38 10 -22 -14 -5 -23 20 -10 17 9
21 9 15 0 -4 -6 -56 -34 -116 -62 -60 -28 -109 -55 -109 -60 0 -4 37 10 83 33
147 73 160 79 164 75 2 -2 -11 -13 -29 -26 l-33 -22 30 5 c17 3 40 0 52 -7 21
-11 18 -14 -60 -61 -45 -28 -102 -60 -127 -72 -41 -21 -46 -21 -62 -6 -18 16
-15 18 47 51 85 45 77 52 -11 10 -38 -18 -70 -33 -71 -33 -1 0 5 -27 13 -60
35 -150 2 -339 -90 -517 -131 -255 -144 -271 -259 -326 -219 -104 -534 -158
-697 -121 -58 13 -77 37 -146 176 -30 62 -59 115 -64 118 -13 8 -13 4 4 -36
15 -38 32 -137 17 -104 -5 11 -18 29 -30 39 -11 11 -21 25 -21 31 0 7 -9 23
-19 36 -20 24 -20 24 -4 -24 9 -26 13 -50 10 -53 -9 -9 -57 28 -50 39 3 5 1 7
-4 4 -6 -4 -19 5 -28 20 -13 20 -16 38 -12 76 4 27 11 55 17 61 5 7 7 16 3 19
-3 4 3 7 13 7 26 0 44 19 43 44 -1 17 -2 18 -6 4 -2 -10 -11 -18 -19 -18 -12
0 -11 6 5 29 17 23 19 34 11 61 -5 18 -6 38 -3 44 4 6 -1 5 -10 -3 -15 -12
-17 -12 -11 3 3 9 12 16 20 16 8 0 14 5 14 11 0 6 6 9 14 6 8 -3 17 -1 20 6 3
9 5 9 5 -1 1 -7 -8 -20 -19 -29 -27 -23 -26 -58 1 -60 12 -1 29 -9 38 -17 10
-9 23 -16 29 -16 7 0 12 -5 12 -11 0 -6 7 -9 15 -6 8 4 17 2 20 -4 4 -5 10 -7
15 -4 5 3 13 -3 19 -12 6 -10 11 -14 11 -10 0 5 5 5 12 1 6 -4 23 -9 37 -10
57 -7 66 -9 74 -19 4 -6 13 -2 23 10 11 14 18 16 21 8 6 -18 38 -16 53 2 10
13 10 19 -4 33 -14 16 -14 21 -1 38 14 18 14 18 15 -6 0 -14 3 -36 7 -49 l6
-23 12 28 c11 28 2 74 -14 74 -4 0 -7 8 -7 18 -1 9 -5 25 -9 35 -10 24 11 19
42 -12 30 -29 44 -91 20 -91 -19 0 -30 -42 -14 -52 19 -12 27 -9 27 10 0 13 2
14 9 4 7 -11 16 -11 55 2 26 9 53 16 61 16 7 0 26 6 42 14 15 8 66 32 113 54
47 22 101 54 120 70 l35 31 -32 11 c-18 7 -34 19 -34 28 -1 15 -2 15 -6 0 -2
-10 -9 -18 -14 -18 -6 0 -8 -4 -5 -9 3 -5 -1 -11 -9 -15 -8 -3 -15 -1 -15 5 0
6 -6 9 -14 6 -8 -3 -17 -1 -19 6 -3 7 -4 -1 -4 -17 2 -21 -3 -29 -16 -32 -12
-1 -17 2 -14 10 3 7 1 19 -5 27 -7 10 -8 3 -4 -23 5 -38 -10 -61 -24 -38 -11
17 -30 3 -30 -21 0 -23 -28 -23 -47 1 -6 8 -15 12 -19 8 -4 -4 -1 -14 6 -23 8
-10 9 -15 1 -15 -6 0 -11 -9 -11 -20 0 -11 -4 -20 -10 -20 -6 0 -6 9 0 25 9
22 7 30 -4 23 -2 -2 -13 8 -25 22 l-22 25 16 -33 16 -33 -24 15 c-13 9 -26 13
-29 10 -4 -3 -9 4 -13 15 -3 12 -11 21 -16 21 -5 0 -18 14 -29 32 -15 24 -16
34 -7 40 8 5 6 8 -7 8 -11 0 -28 7 -38 17 -17 15 -18 15 -18 -1 0 -9 -4 -14
-10 -11 -5 3 -10 1 -10 -4 0 -6 -7 -11 -16 -11 -10 0 -14 6 -11 15 9 21 -14
31 -25 11 -8 -13 -13 -15 -24 -5 -17 14 -60 5 -62 -13 -8 -69 -28 -113 -25
-55 1 18 2 32 3 32 1 0 3 9 4 21 2 16 -2 20 -16 16 -12 -3 -18 1 -18 12 0 24
-18 19 -22 -6 -4 -27 -29 -30 -72 -10 -27 13 -30 12 -53 -15 -13 -15 -23 -23
-20 -18 21 56 30 75 39 75 5 0 7 -4 4 -9 -6 -10 24 -25 32 -16 3 3 1 5 -5 5
-6 0 -13 9 -16 21 -5 20 -6 20 -35 4 -20 -13 -28 -23 -25 -36 3 -11 0 -26 -7
-34 -7 -8 -9 -15 -4 -15 16 -1 -26 -21 -52 -26 -16 -3 -23 -1 -19 6 3 5 0 7
-8 4 -13 -5 -29 32 -31 76 -1 9 -12 14 -31 15 -17 0 -33 4 -36 8 -9 12 -88
-60 -195 -178 -100 -109 -98 -108 -278 -153 -68 -17 -82 -18 -94 -6 -7 8 -18
12 -23 8 -5 -3 -8 0 -7 8 2 8 -6 13 -19 12 -17 0 -20 3 -12 12 12 14 -5 29
-21 19 -6 -3 -7 1 -4 9 4 11 0 16 -15 16 -12 0 -20 6 -19 13 2 6 -5 11 -14 11
-10 -1 -15 2 -12 8 3 5 -4 17 -15 27 -26 22 -27 31 -3 31 9 0 24 5 32 10 13 9
13 11 0 19 -8 6 -11 14 -6 18 5 4 11 2 13 -4 5 -15 53 -18 53 -4 0 5 -7 17
-16 26 -9 9 -13 19 -9 23 4 4 10 1 12 -5 5 -15 39 -17 47 -4 3 5 -9 20 -26 35
-33 27 -26 37 8 11 10 -8 28 -14 39 -14 11 0 14 3 7 6 -6 2 -10 8 -7 13 3 5
-9 19 -27 31 -18 13 -39 29 -46 36 -21 21 3 15 27 -6 13 -11 29 -17 37 -14 8
3 14 -1 14 -8 0 -7 3 -9 7 -6 6 7 -30 47 -42 47 -3 0 -11 5 -18 10 -47 39 -62
50 -78 55 -11 4 -19 11 -19 16 0 5 -12 9 -27 9 -26 -1 -27 -1 -8 -12 11 -6 28
-20 37 -31 10 -11 18 -17 18 -13 0 4 7 1 15 -8 31 -30 13 -25 -44 14 -32 22
-65 40 -74 40 -37 0 -23 18 18 24 25 4 45 11 45 17 0 5 -4 9 -10 9 -5 0 -10 7
-10 15 0 8 -4 15 -8 15 -8 0 -37 21 -80 58 -26 21 -25 21 23 -3 28 -14 58 -35
68 -47 13 -16 21 -18 29 -10 7 7 8 12 2 12 -11 0 -42 22 -87 64 l-32 29 36
-22 c46 -27 57 -27 33 0 -19 22 -19 22 3 10 29 -15 36 -14 29 4 -4 13 -2 13
14 5 23 -13 30 -13 30 0 0 5 -12 16 -27 24 -16 8 -22 15 -14 16 11 0 11 3 0
17 -13 15 -12 15 8 5 29 -16 60 -15 70 1 8 15 53 30 53 19 0 -4 14 -15 30 -24
17 -9 30 -13 30 -8 0 6 -4 10 -8 10 -5 0 -17 7 -28 15 -18 13 -18 14 6 9 22
-4 22 -3 -5 10 -40 20 -17 20 28 1 43 -18 50 -19 42 -5 -4 7 3 9 22 5 19 -4
11 3 -26 23 -33 18 -50 32 -43 36 7 4 12 2 12 -4 0 -6 5 -8 10 -5 8 5 7 12 -2
23 -11 15 -11 15 2 6 22 -16 62 -25 53 -11 -4 6 0 8 10 4 10 -3 17 -2 17 2 0
5 -8 12 -17 16 -17 6 -17 7 2 21 19 14 19 15 -4 12 -13 -2 -26 3 -28 10 -3 6
0 12 7 12 6 0 8 -5 5 -10 -4 -6 5 -5 20 2 21 9 26 18 24 43 -2 16 1 36 5 44 7
10 4 11 -13 2 -11 -7 -21 -17 -21 -23 0 -15 -13 -1 -16 17 -1 8 2 13 7 9 5 -3
9 2 9 11 0 12 -4 14 -19 5 -11 -6 -22 -6 -25 -1 -3 5 8 15 26 22 27 11 29 14
12 20 -10 3 -27 2 -37 -3 -16 -8 -17 -7 -7 11 9 18 20 21 80 21 38 0 72 5 75
11 10 15 -26 38 -60 39 -22 0 -26 -3 -15 -10 11 -7 9 -11 -13 -19 -16 -6 -45
-11 -65 -10 -31 0 -34 2 -20 11 15 11 14 13 -9 25 -14 7 -36 13 -49 13 -20 0
-24 -5 -24 -30 0 -35 -8 -37 -38 -10 -13 12 -23 16 -27 10 -4 -6 -18 12 -32
39 -25 48 -27 49 -62 44 -68 -11 5 28 89 46 19 5 53 15 75 23 40 16 97 36 124
44 11 4 10 8 -5 20 -10 9 -14 14 -9 11 6 -2 17 4 26 13 29 31 6 58 -84 100
-78 37 -85 43 -107 90 -13 27 -27 50 -32 50 -4 0 -11 12 -14 26 -4 16 -11 23
-21 20 -8 -3 -11 -1 -8 4 3 5 -3 15 -14 22 -19 11 -18 13 14 35 50 34 87 30
130 -12 19 -20 35 -42 35 -49 0 -7 24 -62 54 -122 60 -124 94 -160 183 -195
50 -21 76 -24 190 -25 73 -1 138 -6 145 -11 7 -5 22 -7 34 -4 27 8 87 78 104
121 7 19 28 67 45 105 18 39 37 86 44 106 15 47 63 93 88 85 24 -8 71 -56 120
-122 65 -87 110 -132 155 -152 50 -22 98 -73 99 -105 l0 -22 9 23 c10 23 39
29 57 11 8 -8 14 -6 22 9 11 21 37 28 154 42 75 9 150 41 240 103 42 28 73
100 93 214 9 56 21 108 25 114 4 7 47 15 100 20 51 4 95 12 97 18 2 6 10 11
18 11 8 0 13 5 12 12 -2 7 7 17 20 23 23 10 25 18 24 93 0 29 4 42 11 39 7 -2
11 -14 9 -25z m357 12 c20 -14 23 -23 19 -59 -9 -75 -83 -142 -83 -75 0 14 -6
35 -13 47 -19 34 -15 70 10 87 28 20 38 20 67 0z m-839 -47 c44 -18 72 -49 64
-70 -10 -26 -69 -32 -115 -12 -30 14 -69 18 -166 20 -109 1 -128 4 -131 18 -4
17 46 49 88 55 13 2 27 6 30 9 10 11 196 -5 230 -20z m-2630 -21 c0 -18 -5
-24 -18 -23 -14 1 -17 7 -14 24 6 31 32 30 32 -1z m2815 14 c-28 -12 -57 -12
-50 0 3 6 21 10 38 9 27 0 29 -2 12 -9z m-2500 -12 c28 -12 29 -21 26 -135 -2
-53 1 -73 12 -80 27 -15 29 -47 4 -58 -18 -8 -21 -16 -19 -49 3 -26 0 -36 -7
-32 -6 4 -18 0 -26 -8 -12 -12 -22 -13 -41 -6 -14 6 -48 10 -75 10 -36 0 -60
7 -88 26 -48 32 -91 91 -91 127 0 18 -4 25 -14 21 -16 -6 -30 11 -21 26 5 8
12 7 22 -2 12 -10 17 -9 24 5 12 21 60 46 94 49 18 2 28 11 36 35 19 60 46 83
94 83 24 0 56 -5 70 -12z m811 -60 c-6 -4 -20 -8 -31 -8 -16 0 -20 6 -19 28 1
15 3 28 3 30 1 2 14 -7 29 -20 19 -15 25 -26 18 -30z m2236 13 c20 -19 20 -51
-1 -51 -20 0 -54 37 -48 53 8 22 23 21 49 -2z m656 -73 c-3 -36 -24 -44 -41
-16 -12 19 6 48 30 48 10 0 13 -9 11 -32z m-638 -19 c0 -5 -4 -9 -10 -9 -5 0
-10 7 -10 16 0 8 5 12 10 9 6 -3 10 -10 10 -16z m50 6 c0 -8 -9 -15 -20 -15
-11 0 -20 7 -20 15 0 8 9 15 20 15 11 0 20 -7 20 -15z m40 5 c0 -5 -4 -10 -10
-10 -5 0 -10 5 -10 10 0 6 5 10 10 10 6 0 10 -4 10 -10z m-1418 -23 c-2 -12 4
-21 17 -24 12 -3 21 -11 21 -17 0 -7 15 -16 33 -22 17 -5 31 -15 30 -22 -2 -6
3 -12 10 -12 19 0 37 21 37 42 0 10 7 18 15 18 8 0 15 -3 15 -7 0 -10 72 -9
88 1 7 4 12 2 12 -6 0 -10 2 -10 9 1 7 10 26 14 65 13 30 -1 58 3 61 8 8 13
37 13 72 -1 l28 -11 -45 -24 c-35 -19 -39 -24 -17 -19 57 12 137 47 151 67 9
12 27 20 48 21 l33 2 3 -58 c7 -131 -38 -232 -117 -266 -117 -49 -229 -66
-345 -51 -139 18 -214 71 -271 194 -46 98 -51 121 -31 151 9 14 21 23 26 20 6
-4 10 1 10 10 0 11 7 15 23 13 15 -2 21 -9 19 -21z m208 14 c0 -5 3 -16 6 -25
4 -11 0 -16 -14 -16 -27 0 -37 17 -22 35 14 17 30 20 30 6z m1580 -1 c0 -5 -4
-10 -9 -10 -6 0 -13 5 -16 10 -3 6 1 10 9 10 9 0 16 -4 16 -10z m-197 -35 c1
-5 -6 -11 -15 -13 -11 -2 -18 3 -18 13 0 17 30 18 33 0z m-2684 -14 c12 -8 9
-11 -12 -17 -32 -7 -49 3 -27 16 19 12 21 12 39 1z m2931 -12 c0 -11 -4 -19
-10 -19 -5 0 -10 5 -10 10 0 6 -7 10 -15 10 -8 0 -15 4 -15 9 0 5 11 9 25 9
18 0 25 -6 25 -19z m297 6 c8 -9 13 -18 10 -21 -9 -9 -48 16 -42 27 8 13 14
11 32 -6z m-717 -5 c0 -5 -4 -10 -10 -10 -5 0 -10 5 -10 10 0 6 5 10 10 10 6
0 10 -4 10 -10z m52 -25 c0 -5 -5 -11 -11 -13 -6 -2 -11 4 -11 13 0 9 5 15 11
13 6 -2 11 -8 11 -13z m-2129 -15 c5 -21 -7 -25 -37 -14 -13 5 -14 9 -5 20 16
20 36 17 42 -6z m-698 -13 c33 -28 26 -52 -21 -67 -44 -15 -70 -6 -79 28 -5
20 -2 31 15 44 30 24 54 23 85 -5z m435 -2 c0 -22 4 -25 35 -25 31 0 35 -3 27
-17 -7 -11 -3 -26 11 -51 12 -19 23 -30 25 -24 2 7 10 12 17 12 8 0 15 13 17
33 l3 32 65 1 c36 1 67 2 70 3 18 8 40 8 40 -1 0 -5 7 -2 16 6 17 18 94 22 94
5 0 -6 8 -18 17 -27 16 -16 15 -17 -5 -20 -12 -2 -22 -9 -22 -16 0 -19 50 -11
94 14 20 11 39 20 43 20 3 0 3 -24 0 -54 -16 -152 -128 -235 -325 -238 -104
-2 -161 13 -206 52 -41 37 -90 127 -110 206 -25 97 -25 97 37 92 28 -3 46 -3
39 -1 -6 3 -10 9 -6 14 10 18 24 9 24 -16z m2860 4 c0 -24 -23 -21 -28 4 -2
10 3 17 12 17 10 0 16 -9 16 -21z m-4260 -9 c0 -5 -4 -10 -10 -10 -5 0 -10 5
-10 10 0 6 5 10 10 10 6 0 10 -4 10 -10z m4130 0 c0 -5 -4 -10 -10 -10 -5 0
-10 5 -10 10 0 6 5 10 10 10 6 0 10 -4 10 -10z m200 -24 c0 -3 -4 -8 -10 -11
-5 -3 -10 -1 -10 4 0 6 5 11 10 11 6 0 10 -2 10 -4z m164 -5 c3 -4 3 -11 0
-14 -8 -8 -34 3 -34 14 0 11 27 12 34 0z m-314 -16 c0 -8 -7 -15 -15 -15 -8 0
-15 7 -15 15 0 8 7 15 15 15 8 0 15 -7 15 -15z m110 3 c0 -7 -5 -20 -10 -28
-12 -20 -33 0 -24 23 7 20 34 23 34 5z m34 -39 c-3 -5 -10 -7 -15 -3 -5 3 -7
10 -3 15 3 5 10 7 15 3 5 -3 7 -10 3 -15z m-3684 -19 c0 -5 -4 -10 -10 -10 -5
0 -10 5 -10 10 0 6 5 10 10 10 6 0 10 -4 10 -10z m3640 -10 c0 -5 -4 -10 -10
-10 -5 0 -10 5 -10 10 0 6 5 10 10 10 6 0 10 -4 10 -10z m40 -26 c0 -16 -16
-19 -25 -4 -8 13 4 32 16 25 5 -4 9 -13 9 -21z m390 1 c0 -8 -4 -15 -9 -15
-13 0 -22 16 -14 24 11 11 23 6 23 -9z m-3880 -30 c21 -26 3 -65 -38 -82 -20
-8 -48 -17 -62 -19 -52 -6 -145 -37 -171 -56 -17 -13 -32 -17 -41 -12 -7 5
-92 9 -188 9 -150 0 -175 2 -178 16 -2 13 20 17 135 28 115 11 147 18 195 41
45 23 58 26 62 14 4 -10 22 -14 59 -14 47 0 61 5 118 45 68 48 89 54 109 30z
m3400 -15 c0 -5 -4 -10 -10 -10 -5 0 -10 5 -10 10 0 6 5 10 10 10 6 0 10 -4
10 -10z m-30 -46 c0 -17 -22 -14 -28 4 -2 7 3 12 12 12 9 0 16 -7 16 -16z m30
6 c0 -5 -2 -10 -4 -10 -3 0 -8 5 -11 10 -3 6 -1 10 4 10 6 0 11 -4 11 -10z
m30 -11 c0 -5 -4 -9 -10 -9 -5 0 -10 7 -10 16 0 8 5 12 10 9 6 -3 10 -10 10
-16z m58 -166 c2 -9 -9 -13 -37 -13 -39 0 -57 10 -44 24 12 11 76 2 81 -11z
m-3770 -87 c28 0 52 -4 52 -8 0 -10 7 -9 -125 -12 -60 -1 -123 1 -140 4 -30 7
-30 7 -5 13 44 11 84 14 125 8 22 -3 64 -5 93 -5z m3992 -72 c0 -17 -22 -14
-28 4 -2 7 3 12 12 12 9 0 16 -7 16 -16z m-35 -104 c-3 -6 3 -14 15 -18 19 -7
20 -10 7 -20 -12 -10 -16 -9 -21 4 -5 13 -9 14 -21 4 -20 -17 -19 -1 2 22 17
19 28 24 18 8z m-3305 -10 c0 -5 -2 -10 -4 -10 -3 0 -8 5 -11 10 -3 6 -1 10 4
10 6 0 11 -4 11 -10z m3501 -43 c-10 -9 -11 -8 -5 6 3 10 9 15 12 12 3 -3 0
-11 -7 -18z m-3343 -32 c0 -34 -15 -41 -38 -20 -23 21 -18 35 10 28 11 -3 20
0 20 6 0 6 2 11 4 11 2 0 4 -11 4 -25z m2281 1 c-2 -2 -15 -9 -29 -15 -24 -11
-24 -11 -6 3 16 13 49 24 35 12z m348 -2 c-3 -3 -12 -4 -19 -1 -8 3 -5 6 6 6
11 1 17 -2 13 -5z m-317 -8 c0 -2 -7 -7 -16 -10 -8 -3 -12 -2 -9 4 6 10 25 14
25 6z m638 -28 c7 -10 4 -21 -14 -41 -13 -15 -24 -24 -24 -20 0 5 6 15 13 22
10 10 9 15 -5 25 -10 7 -15 16 -11 19 10 11 30 8 41 -5z m52 -28 c-33 -42 -50
-56 -50 -44 0 8 71 84 78 84 2 0 -11 -18 -28 -40z m111 23 c-5 -10 -23 -35
-40 -57 -17 -21 -28 -42 -25 -47 3 -5 0 -9 -5 -9 -6 0 -11 -4 -11 -10 0 -23
30 -7 51 28 33 54 71 103 76 98 2 -2 -11 -26 -30 -53 -19 -26 -42 -66 -52 -88
-10 -22 -20 -43 -22 -47 -2 -5 3 -8 12 -8 9 0 13 5 10 10 -5 9 5 12 33 9 4 0
6 -7 4 -15 -2 -8 4 -14 13 -14 8 0 15 5 15 10 0 6 5 10 11 10 6 0 9 -7 6 -15
-10 -23 12 -29 35 -8 20 16 21 17 15 1 -9 -24 28 -24 42 -1 13 24 21 13 10
-14 -7 -19 -14 -22 -38 -17 -24 5 -30 2 -36 -15 -3 -12 -11 -21 -16 -21 -6 0
-7 9 -4 21 5 16 4 19 -5 14 -9 -5 -11 -4 -6 3 4 7 3 12 -3 12 -6 0 -15 -10
-22 -21 -9 -17 -8 -23 2 -30 11 -7 9 -9 -5 -9 -11 0 -16 -3 -13 -7 4 -3 -1
-12 -11 -19 -16 -13 -16 -13 1 -14 10 0 20 6 23 14 3 8 12 17 21 20 11 4 13 2
9 -9 -7 -21 22 -20 46 2 13 11 18 12 18 3 0 -9 10 -11 34 -7 34 5 35 5 24 -19
-12 -27 -31 -34 -21 -7 5 13 2 15 -18 9 -13 -4 -33 -9 -44 -10 -11 -1 -33 -8
-50 -15 -23 -10 -26 -14 -15 -21 19 -12 33 -13 26 -1 -3 5 0 11 7 14 21 8 32
3 29 -14 -4 -24 30 -34 45 -13 7 10 13 16 14 13 5 -28 4 -49 -3 -49 -5 0 -7
-4 -4 -9 4 -5 0 -11 -6 -14 -9 -3 -7 -11 8 -27 l21 -21 11 28 c5 15 13 36 16
46 6 20 26 23 26 3 0 -7 -7 -27 -15 -42 -19 -37 -19 -73 0 -80 8 -4 12 -11 9
-16 -4 -6 -1 -9 7 -6 8 3 32 65 56 149 23 79 42 136 42 125 1 -10 -12 -64 -28
-120 -40 -140 -45 -177 -29 -187 9 -6 8 -9 -7 -9 -17 0 -17 -2 -5 -10 11 -7
11 -10 2 -10 -7 0 -10 -4 -7 -10 3 -5 -1 -10 -9 -10 -10 0 -13 -6 -9 -16 5
-13 0 -14 -30 -9 -45 9 -77 -1 -77 -25 0 -10 -7 -20 -15 -24 -8 -3 -15 -1 -15
4 0 6 -16 10 -35 10 -38 0 -59 -25 -34 -41 11 -7 9 -9 -6 -9 -11 0 -26 4 -33
9 -11 7 -11 9 2 14 31 12 18 37 -19 37 -37 0 -50 -25 -17 -33 10 -3 6 -5 -10
-6 -29 -1 -38 -15 -15 -24 7 -4 6 -6 -4 -6 -9 -1 -20 -8 -23 -17 -3 -8 -11
-12 -16 -9 -8 5 -7 11 1 21 6 8 8 14 4 14 -4 0 -2 7 5 15 10 12 7 15 -16 21
-18 5 -29 3 -32 -4 -8 -25 -22 -11 -17 17 4 22 1 31 -12 34 -11 3 -7 5 10 6
31 1 29 16 -3 24 -16 4 -25 -4 -43 -34 -12 -21 -25 -39 -29 -39 -13 0 -9 13
12 48 22 36 25 58 9 67 -11 8 -31 -11 -68 -63 -25 -36 -40 -37 -21 -2 7 13 14
32 15 44 2 11 7 32 11 45 5 18 4 23 -7 19 -18 -6 -47 -60 -41 -77 4 -10 1 -13
-9 -9 -10 4 -24 -7 -39 -29 -13 -20 -26 -30 -28 -24 -2 6 -17 -9 -34 -34 -16
-25 -32 -45 -35 -45 -2 0 -1 5 2 10 3 6 2 10 -3 10 -6 0 -13 -11 -16 -25 -4
-14 -11 -25 -16 -25 -13 0 -5 63 9 68 6 2 11 10 11 18 0 8 5 14 11 14 6 0 8
-7 5 -16 -4 -10 -2 -14 6 -11 7 2 12 9 11 15 -1 5 7 18 17 27 11 10 20 23 20
29 0 6 13 45 29 86 26 66 33 75 55 74 13 0 23 3 20 8 -3 4 4 13 16 20 22 14
26 39 9 70 -11 21 -12 21 -26 -3 -10 -16 -12 -17 -7 -4 4 11 7 28 8 38 0 9 6
17 13 17 7 0 10 -6 7 -13 -2 -7 4 -22 16 -32 22 -20 23 -19 24 48 1 30 -2 37
-15 34 -12 -3 -15 1 -12 13 6 23 -14 35 -33 19 -22 -18 -30 -2 -10 20 34 38
-3 30 -43 -9 -23 -22 -43 -40 -46 -40 -11 0 -4 25 12 42 16 18 16 18 0 12 -9
-3 -17 -10 -17 -15 0 -5 -6 -9 -14 -9 -15 0 -39 -25 -42 -45 -1 -8 -9 -24 -19
-37 l-16 -23 7 29 c5 19 2 31 -7 37 -23 14 -28 10 -24 -18 2 -16 4 -39 4 -53
1 -20 3 -22 12 -10 8 11 9 8 3 -15 -4 -16 -10 -50 -14 -75 -4 -25 -8 -36 -9
-25 -2 14 -7 8 -19 -21 -9 -22 -22 -39 -29 -37 -6 2 -13 -6 -16 -19 -3 -19 -5
-18 -6 7 l-1 30 -20 -32 c-11 -18 -22 -44 -26 -58 -6 -25 -22 -32 -39 -16 -6
5 -27 14 -48 21 -39 12 -95 73 -200 218 -26 37 -59 78 -72 92 -14 15 -22 30
-18 34 5 4 3 7 -2 6 -19 -4 -35 0 -35 8 0 10 200 115 207 109 2 -2 -22 -20
-53 -39 -31 -19 -52 -38 -47 -41 6 -4 25 5 43 18 37 28 75 33 83 11 3 -8 -5
-18 -20 -25 -24 -11 -25 -10 -13 4 7 8 10 18 7 22 -6 5 -29 -8 -69 -40 -27
-21 -21 -32 7 -13 13 9 27 16 31 16 13 0 -29 -40 -49 -46 -15 -5 -17 -8 -6
-15 8 -5 20 -3 29 5 8 7 26 19 40 25 19 10 16 4 -13 -23 -37 -34 -42 -56 -12
-56 8 0 19 8 24 18 6 9 11 12 11 6 0 -5 -5 -15 -11 -21 -15 -15 -3 -33 22 -33
10 0 19 -4 19 -10 0 -14 33 -13 48 2 9 9 12 8 12 -5 0 -20 4 -21 31 -6 11 5
17 14 14 20 -4 5 -2 9 2 9 5 0 26 17 47 37 21 21 51 47 66 58 15 11 70 54 121
95 52 41 106 81 119 88 l25 13 -25 -21 c-92 -80 -122 -110 -105 -104 11 4 22
10 25 13 3 4 31 25 62 48 l57 43 40 -19 c23 -10 38 -21 33 -26 -4 -4 7 -5 23
-2 17 4 25 4 18 1 -7 -3 -9 -12 -6 -20 4 -12 -1 -12 -37 1 -23 8 -44 15 -46
15 -8 0 -3 -16 12 -35 12 -16 16 -17 23 -6 6 10 11 5 16 -19 5 -21 10 -28 15
-20 9 15 30 5 30 -15 0 -9 6 -12 16 -8 10 4 17 -1 21 -16 5 -19 7 -18 22 12 9
18 29 53 45 77 65 105 95 163 90 172 -3 5 -19 -5 -35 -24 -15 -18 -28 -28 -29
-22 0 5 15 24 33 42 23 22 36 29 43 22 8 -8 15 -6 24 5 17 20 23 19 11 -2z
m125 -41 c-14 -21 -26 -42 -26 -46 0 -9 -26 -36 -35 -36 -3 0 2 12 11 28 41
67 67 102 72 97 3 -2 -7 -22 -22 -43z m53 6 c-10 -24 -25 -55 -31 -70 -15 -33
-32 -38 -22 -6 7 23 63 118 69 118 3 0 -5 -19 -16 -42z m-104 -4 c-13 -19 -27
-44 -30 -55 -6 -19 -25 -27 -25 -10 0 15 60 101 70 101 5 0 -2 -16 -15 -36z
m162 12 c-3 -8 -1 -17 6 -20 7 -2 4 -5 -5 -5 -10 -1 -18 -3 -18 -5 0 -2 -3
-11 -6 -20 -4 -11 0 -16 14 -16 15 0 24 11 33 38 7 20 14 30 16 22 5 -20 -28
-99 -34 -82 -7 17 -40 15 -51 -4 -8 -14 -10 -12 -14 10 -4 18 -1 26 8 26 8 0
14 7 14 15 0 13 29 55 38 55 2 0 2 -6 -1 -14z m87 -48 c-9 -29 -19 -47 -22
-40 -5 15 27 106 35 98 3 -2 -3 -29 -13 -58z m42 -39 l-16 -34 6 35 c7 41 16
59 21 43 2 -6 -3 -26 -11 -44z m-526 21 c0 -5 -5 -10 -11 -10 -5 0 -7 5 -4 10
3 6 8 10 11 10 2 0 4 -4 4 -10z m54 2 c-10 -7 -23 -32 -20 -42 0 -3 -5 -12
-12 -20 -7 -8 -24 -30 -37 -49 -38 -53 -30 -20 10 40 19 30 35 59 35 66 0 7 8
13 18 13 10 0 13 -3 6 -8z m-359 -28 c-16 -14 -64 -50 -105 -81 -41 -32 -77
-60 -80 -64 -7 -9 -70 -40 -70 -35 0 3 12 12 28 20 15 8 43 29 62 46 19 17 58
46 85 65 28 19 61 43 75 54 36 30 41 25 5 -5z m245 -4 c0 -5 -5 -10 -11 -10
-5 0 -7 5 -4 10 3 6 8 10 11 10 2 0 4 -4 4 -10z m57 -6 c-3 -3 -12 -4 -19 -1
-8 3 -5 6 6 6 11 1 17 -2 13 -5z m179 -21 c-10 -10 -19 5 -10 18 6 11 8 11 12
0 2 -7 1 -15 -2 -18z m-206 -3 c0 -6 -13 -24 -30 -42 -37 -38 -40 -24 -4 20
29 34 34 38 34 22z m260 1 c0 -6 -4 -13 -10 -16 -5 -3 -10 1 -10 9 0 9 5 16
10 16 6 0 10 -4 10 -9z m170 5 c0 -3 -4 -8 -10 -11 -5 -3 -10 -1 -10 4 0 6 5
11 10 11 6 0 10 -2 10 -4z m-120 -16 c0 -5 -4 -10 -10 -10 -5 0 -10 5 -10 10
0 6 5 10 10 10 6 0 10 -4 10 -10z m60 6 c0 -3 -4 -8 -10 -11 -5 -3 -10 -1 -10
4 0 6 5 11 10 11 6 0 10 -2 10 -4z m-775 -16 c-3 -5 -12 -10 -18 -10 -7 0 -6
4 3 10 19 12 23 12 15 0z m805 -50 c-15 -37 -33 -40 -19 -4 13 36 20 46 26 40
3 -3 0 -19 -7 -36z m55 -5 c-9 -20 -18 -35 -21 -33 -2 3 3 22 11 43 9 20 18
35 21 33 2 -3 -3 -22 -11 -43z m75 25 c0 -5 -5 -10 -11 -10 -5 0 -7 5 -4 10 3
6 8 10 11 10 2 0 4 -4 4 -10z m-1135 -65 c-9 -5 -29 -20 -43 -32 -31 -26 -52
-31 -28 -7 17 17 22 49 6 39 -5 -3 -10 -2 -10 2 0 17 44 29 69 19 21 -9 22
-11 6 -21z m98 4 c-9 -9 -29 -16 -56 -18 -5 -1 -6 -5 -3 -9 2 -4 -5 -9 -16 -9
-30 -3 -9 15 38 32 48 17 51 18 37 4z m827 1 c0 -5 -4 -10 -10 -10 -5 0 -10 5
-10 10 0 6 5 10 10 10 6 0 10 -4 10 -10z m241 -51 c-9 -23 -10 -23 -10 -2 -1
12 2 30 6 40 6 15 8 15 11 2 1 -8 -2 -26 -7 -40z m-3848 -7 c36 -31 15 -30
-28 0 -25 18 -45 36 -45 40 0 9 42 -15 73 -40z m3722 29 c-2 -11 -11 -32 -20
-48 -15 -26 -16 -27 -10 -3 4 14 9 35 12 48 6 27 23 30 18 3z m-3775 -44 c0
-9 -56 28 -66 44 -3 6 10 0 30 -13 20 -13 36 -27 36 -31z m3170 34 c0 -6 -4
-12 -8 -15 -5 -3 -9 1 -9 9 0 8 4 15 9 15 4 0 8 -4 8 -9z m-445 -20 c-3 -6
-11 -11 -17 -11 -6 0 -6 6 2 15 14 17 26 13 15 -4z m61 -7 c-30 -21 -42 -17
-15 5 13 11 26 17 29 14 3 -2 -4 -11 -14 -19z m-2802 -43 c28 -31 14 -25 -25
10 -19 17 -25 26 -14 21 11 -6 29 -20 39 -31z m3166 25 c0 -3 -4 -8 -10 -11
-5 -3 -10 -1 -10 4 0 6 5 11 10 11 6 0 10 -2 10 -4z m737 -33 c-3 -10 -5 -4
-5 12 0 17 2 24 5 18 2 -7 2 -21 0 -30z m-1137 12 c0 -12 -19 -12 -23 0 -4 9
-1 12 9 8 7 -3 14 -7 14 -8z m-2650 -5 c0 -5 -2 -10 -4 -10 -3 0 -8 5 -11 10
-3 6 -1 10 4 10 6 0 11 -4 11 -10z m-140 -42 c0 -4 -9 0 -20 9 -11 10 -20 21
-20 25 0 4 9 0 20 -9 11 -10 20 -21 20 -25z m110 -20 c0 -5 -13 -2 -30 7 -16
9 -30 20 -30 26 0 5 14 2 30 -8 17 -9 30 -21 30 -25z m2987 20 c-3 -8 -6 -5
-6 6 -1 11 2 17 5 13 3 -3 4 -12 1 -19z m-3097 -55 c0 -8 -38 17 -51 33 -9 11
-2 9 19 -6 17 -13 32 -25 32 -27z m46 29 c10 -9 32 -27 48 -40 16 -12 25 -22
21 -22 -4 0 -26 14 -49 32 -58 45 -62 48 -50 48 6 0 19 -8 30 -18z m94 -17
c11 -13 10 -14 -4 -9 -9 3 -16 10 -16 15 0 13 6 11 20 -6z m3767 -17 c-3 -7
-5 -2 -5 12 0 14 2 19 5 13 2 -7 2 -19 0 -25z m-846 -45 c-12 -20 -14 -14 -5
12 4 9 9 14 11 11 3 -2 0 -13 -6 -23z m63 0 c-7 -30 -24 -55 -24 -35 0 12 21
62 27 62 2 0 0 -12 -3 -27z m780 12 c-4 -8 -8 -15 -10 -15 -2 0 -4 7 -4 15 0
8 4 15 10 15 5 0 7 -7 4 -15z m-15 -77 c-4 -29 -10 -61 -14 -70 -11 -27 -26
-22 -16 5 5 12 9 25 9 30 0 4 3 25 7 47 10 60 23 48 14 -12z m-3649 -8 c8 -5
12 -11 10 -14 -3 -2 -14 2 -24 10 -22 15 -10 19 14 4z m1067 -30 c-4 -27 -17
-38 -17 -13 0 18 8 33 17 33 1 0 2 -9 0 -20z m241 2 c2 -7 -2 -10 -12 -6 -9 3
-16 11 -16 16 0 13 23 5 28 -10z m-1358 -2 c0 -5 -4 -10 -10 -10 -5 0 -10 5
-10 10 0 6 5 10 10 10 6 0 10 -4 10 -10z m1313 -20 c-7 -27 -13 -25 -11 4 1
14 5 23 9 20 4 -2 5 -13 2 -24z m67 -21 c0 -6 -4 -7 -10 -4 -5 3 -10 11 -10
16 0 6 5 7 10 4 6 -3 10 -11 10 -16z m-1425 1 c3 -5 1 -10 -4 -10 -6 0 -11 5
-11 10 0 6 2 10 4 10 3 0 8 -4 11 -10z m25 -20 c0 -5 -5 -10 -11 -10 -5 0 -7
5 -4 10 3 6 8 10 11 10 2 0 4 -4 4 -10z m1324 -16 c3 -8 2 -12 -4 -9 -6 3 -10
10 -10 16 0 14 7 11 14 -7z m1459 -11 c-5 -12 -7 -12 -14 -1 -13 20 -11 28 5
22 8 -3 12 -12 9 -21z m807 7 c0 -5 -4 -10 -10 -10 -5 0 -10 5 -10 10 0 6 5
10 10 10 6 0 10 -4 10 -10z m-769 -31 c-9 -22 -10 -22 -10 -3 -1 11 2 24 6 27
12 12 14 0 4 -24z m140 4 c-8 -15 -10 -15 -11 -2 0 17 10 32 18 25 2 -3 -1
-13 -7 -23z m169 7 c0 -5 -4 -10 -10 -10 -5 0 -10 5 -10 10 0 6 5 10 10 10 6
0 10 -4 10 -10z m-3158 -20 c12 -11 18 -20 12 -20 -11 1 -44 25 -44 34 0 11
10 7 32 -14z m3238 1 c0 -6 -4 -13 -10 -16 -5 -3 -10 1 -10 9 0 9 5 16 10 16
6 0 10 -4 10 -9z m270 0 c0 -6 -4 -13 -10 -16 -5 -3 -10 1 -10 9 0 9 5 16 10
16 6 0 10 -4 10 -9z m-1980 -22 c0 -6 -4 -7 -10 -4 -5 3 -10 11 -10 16 0 6 5
7 10 4 6 -3 10 -11 10 -16z m1886 10 c3 -6 2 -14 -4 -18 -6 -3 -14 -19 -17
-34 -4 -15 -11 -27 -17 -27 -5 0 -7 -4 -4 -8 7 -12 -34 -92 -47 -92 -7 0 -7 4
1 12 7 7 12 18 12 26 0 7 9 33 20 57 11 24 22 54 24 67 3 13 5 24 5 26 2 7 21
1 27 -9z m-2249 -21 c-3 -8 -6 -5 -6 6 -1 11 2 17 5 13 3 -3 4 -12 1 -19z
m2433 18 c0 -3 -4 -8 -10 -11 -5 -3 -10 -1 -10 4 0 6 5 11 10 11 6 0 10 -2 10
-4z m-2113 -28 c-3 -8 -6 -5 -6 6 -1 11 2 17 5 13 3 -3 4 -12 1 -19z m1653 18
c0 -3 -4 -8 -10 -11 -5 -3 -10 -1 -10 4 0 6 5 11 10 11 6 0 10 -2 10 -4z
m-3200 -16 c0 -5 -2 -10 -4 -10 -3 0 -8 5 -11 10 -3 6 -1 10 4 10 6 0 11 -4
11 -10z m100 0 c0 -5 -2 -10 -4 -10 -3 0 -8 5 -11 10 -3 6 -1 10 4 10 6 0 11
-4 11 -10z m3454 -12 c-8 -29 -10 -31 -23 -24 -7 5 -7 13 2 26 16 27 30 25 21
-2z m-3529 -8 c3 -5 1 -10 -4 -10 -6 0 -11 5 -11 10 0 6 2 10 4 10 3 0 8 -4
11 -10z m105 0 c0 -5 -4 -10 -10 -10 -5 0 -10 5 -10 10 0 6 5 10 10 10 6 0 10
-4 10 -10z m3140 0 c0 -5 -4 -10 -10 -10 -5 0 -10 5 -10 10 0 6 5 10 10 10 6
0 10 -4 10 -10z m90 -10 c0 -5 -4 -10 -10 -10 -5 0 -10 5 -10 10 0 6 5 10 10
10 6 0 10 -4 10 -10z m-3206 -21 c-3 -5 -10 -7 -15 -3 -5 3 -7 10 -3 15 3 5
10 7 15 3 5 -3 7 -10 3 -15z m2936 17 c0 -3 -4 -8 -10 -11 -5 -3 -10 -1 -10 4
0 6 5 11 10 11 6 0 10 -2 10 -4z m70 -16 c-6 -11 -16 -20 -22 -20 -6 0 -3 9 7
20 10 11 20 20 22 20 2 0 -1 -9 -7 -20z m373 -13 c-8 -13 -10 -19 -12 -42 0
-8 -6 -15 -12 -15 -6 0 -8 9 -4 21 4 12 9 29 10 38 2 9 4 17 4 19 1 2 6 0 11
-3 6 -4 7 -12 3 -18z m97 13 c0 -5 -5 -10 -11 -10 -5 0 -7 5 -4 10 3 6 8 10
11 10 2 0 4 -4 4 -10z m-3450 -20 c0 -5 -4 -10 -10 -10 -5 0 -10 5 -10 10 0 6
5 10 10 10 6 0 10 -4 10 -10z m3160 3 c0 -15 -37 -63 -43 -57 -8 8 23 64 35
64 4 0 8 -3 8 -7z m-106 -22 c-10 -10 -23 -16 -27 -14 -12 7 13 33 31 33 13 0
12 -3 -4 -19z m386 -1 c0 -5 -4 -10 -10 -10 -5 0 -10 5 -10 10 0 6 5 10 10 10
6 0 10 -4 10 -10z m-3410 -10 c0 -5 -4 -10 -10 -10 -5 0 -10 5 -10 10 0 6 5
10 10 10 6 0 10 -4 10 -10z m3400 -20 c0 -5 -5 -10 -11 -10 -5 0 -7 5 -4 10 3
6 8 10 11 10 2 0 4 -4 4 -10z m-100 -20 c0 -5 -4 -10 -10 -10 -5 0 -10 5 -10
10 0 6 5 10 10 10 6 0 10 -4 10 -10z m-15 -30 c3 -5 1 -10 -4 -10 -6 0 -11 5
-11 10 0 6 2 10 4 10 3 0 8 -4 11 -10z m105 0 c0 -5 -5 -10 -11 -10 -5 0 -7 5
-4 10 3 6 8 10 11 10 2 0 4 -4 4 -10z m-10 -30 c0 -5 -5 -10 -11 -10 -5 0 -7
5 -4 10 3 6 8 10 11 10 2 0 4 -4 4 -10z m-10 -40 c0 -5 -4 -10 -10 -10 -5 0
-10 5 -10 10 0 6 5 10 10 10 6 0 10 -4 10 -10z m-2460 -105 c13 -14 20 -28 17
-32 -12 -11 -54 14 -60 36 -7 29 14 27 43 -4z"/>
<path d="M2320 3760 c0 -5 5 -10 11 -10 5 0 7 5 4 10 -3 6 -8 10 -11 10 -2 0
-4 -4 -4 -10z"/>
<path d="M2988 3593 c6 -2 18 -2 25 0 6 3 1 5 -13 5 -14 0 -19 -2 -12 -5z"/>
<path d="M3582 3374 c-21 -14 -22 -18 -8 -33 8 -9 18 -28 21 -44 14 -54 36
-38 50 35 6 30 4 38 -13 47 -26 14 -23 14 -50 -5z"/>
<path d="M3470 3243 c0 -4 8 -17 16 -28 15 -20 16 -20 12 4 -3 22 -28 44 -28
24z"/>
<path d="M3780 3035 c0 -9 6 -12 15 -9 8 4 15 7 15 9 0 2 -7 5 -15 9 -9 3 -15
0 -15 -9z"/>
<path d="M3550 2745 c0 -8 4 -15 10 -15 5 0 7 7 4 15 -4 8 -8 15 -10 15 -2 0
-4 -7 -4 -15z"/>
<path d="M3555 2700 c-3 -5 1 -10 9 -10 8 0 18 5 21 10 3 6 -1 10 -9 10 -8 0
-18 -4 -21 -10z"/>
<path d="M2414 2690 c-12 -4 -31 -21 -43 -37 -41 -55 -42 -56 -88 -49 -24 3
-63 17 -87 31 -24 14 -58 25 -78 25 -40 0 -68 -24 -50 -42 15 -15 94 -28 111
-18 8 4 28 4 45 -1 57 -16 97 -10 155 24 31 19 82 40 113 47 32 7 55 17 52 22
-7 10 -102 9 -130 -2z"/>
<path d="M3725 2610 c-3 -5 -12 -7 -20 -4 -14 6 -52 -42 -42 -53 4 -3 12 6 18
21 7 14 16 26 21 26 11 0 10 -17 -2 -25 -5 -3 -10 -12 -9 -18 0 -7 7 -2 16 11
16 23 40 32 27 10 -5 -8 0 -7 11 2 17 13 18 13 13 -1 -3 -9 -1 -16 5 -16 7 0
23 -4 37 -7 19 -5 31 -2 45 13 26 30 13 35 -20 9 l-28 -21 12 21 c14 27 5 28
-22 5 -19 -17 -20 -17 -8 4 10 20 9 21 -15 17 -16 -3 -23 -1 -19 6 3 5 2 10
-4 10 -5 0 -12 -4 -16 -10z"/>
<path d="M3560 2591 c0 -5 10 -7 22 -3 14 3 19 1 14 -6 -5 -8 -1 -10 9 -5 13
5 14 7 3 14 -17 11 -48 11 -48 0z"/>
<path d="M3630 2569 c0 -5 5 -7 10 -4 6 3 10 8 10 11 0 2 -4 4 -10 4 -5 0 -10
-5 -10 -11z"/>
<path d="M3620 2494 c-19 -8 -38 -20 -43 -27 -5 -7 -6 -2 -2 12 5 17 4 22 -6
19 -15 -5 -20 -68 -6 -68 4 0 19 11 33 25 14 14 29 25 33 25 5 0 14 7 21 15
15 18 14 18 -30 -1z"/>
<path d="M3633 2468 c-18 -11 -33 -24 -33 -29 0 -10 77 28 86 42 9 15 -19 8
-53 -13z"/>
<path d="M3690 2465 c-10 -12 -10 -15 4 -15 9 0 16 7 16 15 0 8 -2 15 -4 15
-2 0 -9 -7 -16 -15z"/>
<path d="M3720 2450 c0 -5 4 -10 9 -10 6 0 13 5 16 10 3 6 -1 10 -9 10 -9 0
-16 -4 -16 -10z"/>
<path d="M2840 2430 c-22 -29 -120 -50 -237 -50 -65 0 -123 -6 -160 -17 -32
-9 -101 -17 -153 -18 -52 -2 -134 -6 -182 -10 -82 -7 -87 -7 -111 16 -35 35
-64 50 -82 43 -8 -4 -15 -1 -15 6 0 10 -3 10 -15 0 -8 -7 -15 -9 -15 -5 0 4
-7 2 -15 -5 -8 -7 -13 -16 -10 -20 3 -5 -4 -6 -15 -3 -25 7 -26 -7 -2 -34 29
-33 53 -41 152 -48 52 -4 115 -13 140 -19 44 -13 94 -5 116 17 4 4 24 7 44 7
19 0 62 7 94 15 32 9 100 20 150 26 99 11 157 20 226 37 25 7 81 15 125 19 61
6 80 12 80 23 0 9 -9 15 -22 14 -13 0 -23 5 -23 13 0 20 -53 15 -70 -7z"/>
<path d="M3545 2410 c-3 -5 -2 -10 4 -10 5 0 13 5 16 10 3 6 2 10 -4 10 -5 0
-13 -4 -16 -10z"/>
<path d="M1537 2351 c-2 -10 -1 -25 4 -32 6 -10 9 -4 9 19 0 36 -5 42 -13 13z"/>
<path d="M1565 2351 c-3 -5 -2 -12 3 -15 5 -3 9 1 9 9 0 17 -3 19 -12 6z"/>
<path d="M3620 2310 c-9 -6 -10 -10 -3 -10 6 0 15 5 18 10 8 12 4 12 -15 0z"/>
<path d="M3493 2275 c-6 -19 -9 -35 -7 -35 10 0 84 41 84 46 0 4 -15 4 -32 1
-18 -3 -27 -3 -20 0 16 6 16 23 -1 23 -8 0 -18 -16 -24 -35z"/>
<path d="M1475 2255 c58 -27 77 -31 49 -10 -14 11 -15 14 -4 15 13 0 13 1 0
10 -20 13 -33 13 -25 0 3 -5 1 -10 -4 -10 -6 0 -11 4 -11 8 0 4 -12 8 -27 9
-23 1 -19 -3 22 -22z"/>
<path d="M3600 2250 c-8 -5 -10 -10 -5 -10 6 0 17 5 25 10 8 5 11 10 5 10 -5
0 -17 -5 -25 -10z"/>
<path d="M3623 2233 c-16 -13 -16 -13 4 -4 25 13 46 14 39 4 -2 -5 -43 -28
-90 -53 -47 -24 -83 -46 -81 -48 3 -3 225 108 225 113 0 9 -84 -1 -97 -12z"/>
<path d="M1424 2205 c11 -8 26 -15 33 -15 22 0 14 8 -19 19 -30 10 -31 9 -14
-4z"/>
<path d="M1480 2205 c14 -8 30 -14 35 -14 6 0 -1 6 -15 14 -14 8 -29 14 -35
14 -5 0 1 -6 15 -14z"/>
<path d="M3493 2203 c-18 -9 -33 -20 -33 -25 0 -5 18 1 40 12 22 11 40 23 40
25 0 8 -13 5 -47 -12z"/>
<path d="M1347 2189 c7 -7 15 -10 18 -7 3 3 -2 9 -12 12 -14 6 -15 5 -6 -5z"/>
<path d="M1487 2179 c7 -7 15 -10 18 -7 3 3 -2 9 -12 12 -14 6 -15 5 -6 -5z"/>
<path d="M1560 2170 c8 -5 20 -10 25 -10 6 0 3 5 -5 10 -8 5 -19 10 -25 10 -5
0 -3 -5 5 -10z"/>
<path d="M1520 2166 c0 -2 7 -7 16 -10 8 -3 12 -2 9 4 -6 10 -25 14 -25 6z"/>
<path d="M2245 2150 c-27 -9 -57 -15 -65 -12 -8 3 -4 -4 9 -16 13 -12 27 -19
32 -16 5 3 18 0 29 -6 13 -7 20 -7 20 0 0 13 23 13 37 -1 9 -9 7 -18 -5 -37
-10 -15 -11 -23 -4 -19 7 5 12 3 12 -4 0 -9 3 -9 14 0 10 8 15 9 18 1 8 -24
38 2 38 34 -1 48 -40 80 -66 53 -11 -11 -26 -9 -19 3 3 6 1 10 -6 10 -8 0 -8
4 1 15 7 8 11 14 9 14 -2 -1 -26 -9 -54 -19z m111 -87 c-10 -10 -19 5 -10 18
6 11 8 11 12 0 2 -7 1 -15 -2 -18z"/>
<path d="M1567 2139 c7 -7 15 -10 18 -7 3 3 -2 9 -12 12 -14 6 -15 5 -6 -5z"/>
<path d="M2430 2060 c0 -5 5 -10 11 -10 5 0 7 5 4 10 -3 6 -8 10 -11 10 -2 0
-4 -4 -4 -10z"/>
<path d="M1787 2039 c7 -7 15 -10 18 -7 3 3 -2 9 -12 12 -14 6 -15 5 -6 -5z"/>
<path d="M1638 2033 c7 -3 16 -2 19 1 4 3 -2 6 -13 5 -11 0 -14 -3 -6 -6z"/>
<path d="M1240 2019 c0 -5 5 -7 10 -4 6 3 10 8 10 11 0 2 -4 4 -10 4 -5 0 -10
-5 -10 -11z"/>
<path d="M1927 1964 c-4 -4 -7 -14 -7 -23 0 -11 3 -12 11 -4 6 6 10 16 7 23
-2 6 -7 8 -11 4z"/>
<path d="M1951 1904 c0 -11 3 -14 6 -6 3 7 2 16 -1 19 -3 4 -6 -2 -5 -13z"/>
<path d="M2970 1906 c0 -8 7 -16 15 -20 8 -3 15 -11 15 -18 0 -10 -2 -10 -9 1
-6 10 -10 10 -16 1 -4 -7 0 -18 9 -26 9 -8 14 -11 11 -8 -3 4 -1 12 5 19 12
14 -1 59 -17 63 -7 1 -13 -4 -13 -12z"/>
<path d="M2935 1828 c10 -31 21 -42 27 -26 2 7 -4 21 -15 31 -19 19 -19 18
-12 -5z"/>
<path d="M2646 1776 c3 -8 1 -17 -5 -21 -6 -3 -11 -11 -11 -17 0 -5 9 0 19 13
19 23 19 39 1 39 -5 0 -7 -6 -4 -14z"/>
<path d="M2670 1751 c0 -6 5 -13 10 -16 6 -3 10 1 10 9 0 9 -4 16 -10 16 -5 0
-10 -4 -10 -9z"/>
<path d="M1260 1660 c0 -13 11 -13 30 0 12 8 11 10 -7 10 -13 0 -23 -4 -23
-10z"/>
<path d="M2166 1510 c9 -35 33 -78 33 -60 0 8 -9 31 -20 50 -15 26 -18 29 -13
10z"/>
<path d="M2151 1434 c0 -11 3 -14 6 -6 3 7 2 16 -1 19 -3 4 -6 -2 -5 -13z"/>
<path d="M4215 2210 l-29 -30 42 20 c24 12 40 25 37 30 -10 16 -19 12 -50 -20z"/>
<path d="M4476 2151 c-51 -86 -52 -91 -32 -91 13 0 17 6 27 35 1 6 11 19 21
29 10 11 18 24 18 29 0 4 12 24 26 43 25 32 25 34 7 34 -14 0 -34 -23 -67 -79z"/>
<path d="M4215 2160 c-10 -11 -14 -20 -9 -20 13 0 41 20 29 20 -5 0 -3 5 5 10
8 5 10 10 4 10 -6 0 -19 -9 -29 -20z"/>
<path d="M4520 2134 c-13 -33 -13 -34 5 -34 14 0 35 29 35 49 0 22 -31 10 -40
-15z"/>
<path d="M4580 2144 c-10 -11 -10 -14 1 -14 9 0 7 -5 -5 -11 -15 -9 -16 -13
-5 -20 10 -6 11 -9 2 -9 -7 0 -13 -5 -13 -11 0 -8 5 -8 15 1 8 7 12 16 9 21
-3 5 -1 9 5 9 6 0 15 9 20 19 13 24 -12 37 -29 15z"/>
<path d="M3983 2077 c-43 -33 -49 -50 -18 -55 11 -3 15 0 11 7 -4 6 0 14 8 17
9 3 13 11 9 17 -4 6 0 8 11 4 10 -4 15 -3 11 3 -3 6 2 10 12 10 14 0 15 2 4 9
-11 7 -10 10 5 14 11 3 12 5 4 5 -8 0 -34 -14 -57 -31z"/>
<path d="M4082 2088 c5 -15 28 -23 28 -10 0 5 -7 13 -16 16 -10 4 -14 1 -12
-6z"/>
<path d="M4490 2075 c-10 -12 -9 -15 8 -15 11 0 22 7 26 15 3 9 0 15 -8 15 -7
0 -19 -7 -26 -15z"/>
<path d="M4548 2053 c7 -3 16 -2 19 1 4 3 -2 6 -13 5 -11 0 -14 -3 -6 -6z"/>
<path d="M3913 2016 c-12 -14 -7 -26 9 -26 5 0 6 5 3 10 -9 14 8 13 23 -2 7
-7 12 -8 12 -2 0 11 -21 34 -29 34 -4 -1 -11 -7 -18 -14z"/>
<path d="M3640 2011 c0 -9 30 -24 36 -18 2 1 -6 8 -16 15 -11 7 -20 8 -20 3z"/>
<path d="M4030 1953 c0 -41 3 -54 10 -43 13 20 13 87 0 95 -6 4 -10 -16 -10
-52z"/>
<path d="M3885 1980 c3 -5 11 -10 16 -10 6 0 7 5 4 10 -3 6 -11 10 -16 10 -6
0 -7 -4 -4 -10z"/>
<path d="M4690 1970 c0 -5 5 -10 11 -10 5 0 7 5 4 10 -3 6 -8 10 -11 10 -2 0
-4 -4 -4 -10z"/>
<path d="M3912 1755 c0 -16 2 -22 5 -12 2 9 2 23 0 30 -3 6 -5 -1 -5 -18z"/>
<path d="M4191 1746 c-6 -16 -10 -31 -7 -33 7 -8 28 37 23 50 -3 7 -10 -1 -16
-17z"/>
<path d="M4478 1713 c7 -3 16 -2 19 1 4 3 -2 6 -13 5 -11 0 -14 -3 -6 -6z"/>
<path d="M4450 1691 c0 -5 11 -12 25 -15 31 -8 54 2 34 15 -18 11 -59 11 -59
0z"/>
<path d="M4668 1693 c7 -3 16 -2 19 1 4 3 -2 6 -13 5 -11 0 -14 -3 -6 -6z"/>
<path d="M3770 2105 c0 -9 6 -12 15 -9 8 4 12 10 9 15 -8 14 -24 10 -24 -6z"/>
</g>
</svg>
