<?xml version="1.0" standalone="no"?>
<!DOCTYPE svg PUBLIC "-//W3C//DTD SVG 20010904//EN"
 "http://www.w3.org/TR/2001/REC-SVG-20010904/DTD/svg10.dtd">
<svg version="1.0" xmlns="http://www.w3.org/2000/svg"
 width="500.000000pt" height="500.000000pt" viewBox="0 0 500.000000 500.000000"
 preserveAspectRatio="xMidYMid meet">
<metadata>
Created by potrace 1.14, written by Peter Selinger 2001-2017
</metadata>
<g transform="translate(0.000000,500.000000) scale(0.100000,-0.100000)"
fill="#000000" stroke="none">
<path d="M797 3910 c-12 -3 -32 -5 -44 -4 -13 1 -23 -2 -23 -6 0 -5 -11 -7
-25 -5 -14 1 -28 -2 -31 -7 -3 -4 -10 -6 -15 -3 -5 4 -9 1 -9 -5 0 -6 -6 -10
-12 -9 -16 3 -108 -42 -108 -53 0 -4 -7 -8 -15 -8 -8 0 -15 -4 -15 -10 0 -5
-4 -9 -9 -7 -23 6 -161 -177 -161 -215 0 -8 -5 -19 -10 -24 -23 -23 -60 -206
-60 -295 0 -121 37 -286 84 -374 9 -16 16 -36 16 -42 0 -7 4 -13 8 -13 4 0 13
-12 19 -27 15 -37 46 -87 56 -91 4 -2 7 -9 7 -16 0 -7 11 -25 25 -40 14 -15
25 -31 25 -35 0 -5 7 -11 15 -15 8 -3 15 -12 15 -21 0 -8 5 -15 10 -15 6 0 10
-5 10 -11 0 -12 10 -23 205 -222 80 -81 145 -145 145 -142 0 9 71 -67 98 -103
48 -67 11 -133 -75 -135 -13 -1 -23 -4 -23 -7 0 -3 -31 -5 -70 -5 -38 0 -70
-2 -70 -5 0 -3 -111 -5 -247 -5 l-248 0 -3 -422 -2 -423 57 -1 c264 -2 1304 3
1328 7 17 3 38 5 48 5 9 0 17 5 17 10 0 5 11 7 25 5 14 -3 25 0 25 5 0 6 4 8
8 5 4 -2 27 4 50 14 23 11 42 16 42 13 0 -3 6 0 13 6 8 6 17 8 20 4 4 -3 7 -1
7 6 0 7 5 9 10 6 6 -3 10 -1 10 5 0 6 5 8 10 5 6 -3 10 -1 10 5 0 6 5 8 10 5
6 -3 10 -2 10 4 0 5 8 12 18 15 9 3 32 19 50 35 17 17 32 28 32 26 0 -3 9 3
20 12 11 10 20 21 20 25 0 4 10 18 23 31 34 37 85 144 103 217 20 79 23 260 5
345 -6 33 -21 87 -33 120 -29 84 -114 259 -132 274 -9 8 -16 18 -16 23 0 14
-81 128 -91 128 -5 0 -9 5 -9 11 0 6 -6 17 -12 24 -7 8 -42 46 -78 85 -36 39
-76 83 -90 96 -124 122 -170 165 -170 161 0 -10 -44 35 -80 82 -40 51 -46 102
-15 125 11 7 25 12 32 9 7 -3 13 0 13 7 0 6 4 9 9 5 5 -3 12 -2 15 3 2 4 41 8
85 7 45 -1 81 2 81 5 0 3 264 5 587 5 l588 0 5 -993 5 -994 395 1 c217 0 425
0 462 0 l68 1 2 992 3 993 440 0 440 0 3 418 2 417 -37 1 c-223 4 -3889 3
-3906 -1z"/>
</g>
</svg>
